<?xml version="1.0" encoding="UTF-8"?>
<svg fill="#FFFFFF" id="Layer_2" data-name="Layer 2" xmlns="http://www.w3.org/2000/svg" viewBox="0 0 690.38 689.05">
  <g id="Layer_1-2" data-name="Layer 1">
    <g>
      <path d="M364.11,689.03l-37.69.02c-98.15-4.74-188.84-52.72-249.66-127.75C-30.97,428.4-24.68,236.63,91.69,111.03c26.23-28.31,57.3-52.66,92.51-71.24C242.29,9.14,303.7-3.37,369.11.77c87.75,5.56,168.89,45.64,227.89,108.38,124.5,132.39,124.52,338.83,0,471.23-60.03,63.82-142.98,104.32-232.89,108.65ZM443.74,569.67c67.99-.03,125.09-57.52,125.09-125.12v-196.6c0-67.02-56.56-124.91-123.81-124.89l-200.1.06c-67.2,1.13-123.25,58.06-123.3,124.84l-.17,194.53c-.06,69.12,56.89,127.31,126.29,127.27l196.01-.09Z"/>
      <path d="M527.34,447.2c.01,45.22-38.6,82.24-83,82.34l-193.67.44c-49.02.11-88.25-38.36-88.12-87.57l.53-195.43c.12-44.83,38.89-81.79,83.43-81.79l197.9.04c44.18,0,82.88,37.26,82.89,81.71l.05,200.25ZM459.31,200.45c-15.68,3.51-24.02,18.82-20.33,33.28s17.94,22.82,32.37,19.62c14.59-3.24,23.67-17.72,20.42-32.45s-17.07-23.89-32.46-20.45ZM338.47,231.39c-64.93,3.79-113.21,59.56-109.34,123.01,3.91,64.02,58.86,112.71,122.82,109.01,64.15-3.72,113.22-58.91,109.36-123.13-3.79-63.12-58.24-112.66-122.85-108.89Z"/>
      <path d="M340.39,272.42c42.23-2.7,77.17,29.46,79.89,69.98,2.77,41.33-28.8,76.99-69.56,79.95-41.49,3.02-77.4-28.23-80.49-69.26-3.1-41.18,27.87-77.97,70.16-80.67Z"/>
    </g>
  </g>
</svg>